<mxfile host="app.diagrams.net" modified="2024-06-25T10:18:28.678Z" agent="Mozilla/5.0 (Windows NT 10.0; Win64; x64) AppleWebKit/537.36 (KHTML, like Gecko) Chrome/126.0.0.0 Safari/537.36" etag="l0i1Hrd-79r4FqfXIpQk" version="24.6.2" type="device">
  <diagram name="Context" id="xL6SbGrLhoHJTWkDJNv5">
    <mxGraphModel dx="804" dy="526" grid="1" gridSize="10" guides="1" tooltips="1" connect="1" arrows="1" fold="1" page="1" pageScale="1" pageWidth="827" pageHeight="1169" math="0" shadow="0">
      <root>
        <object label="" id="0">
          <mxCell />
        </object>
        <mxCell id="1" parent="0" />
        <mxCell id="zVPU9EZqsMoLUNTVkmHJ-23" style="edgeStyle=orthogonalEdgeStyle;rounded=0;orthogonalLoop=1;jettySize=auto;html=1;exitX=0.5;exitY=1;exitDx=0;exitDy=0;entryX=0.5;entryY=0;entryDx=0;entryDy=0;" edge="1" parent="1" source="zVPU9EZqsMoLUNTVkmHJ-3" target="zVPU9EZqsMoLUNTVkmHJ-22">
          <mxGeometry relative="1" as="geometry" />
        </mxCell>
        <mxCell id="zVPU9EZqsMoLUNTVkmHJ-24" value="Via HTTP API" style="edgeLabel;html=1;align=center;verticalAlign=middle;resizable=0;points=[];" vertex="1" connectable="0" parent="zVPU9EZqsMoLUNTVkmHJ-23">
          <mxGeometry x="-0.0095" y="2" relative="1" as="geometry">
            <mxPoint as="offset" />
          </mxGeometry>
        </mxCell>
        <mxCell id="zVPU9EZqsMoLUNTVkmHJ-3" value="TO DO APP" style="rounded=1;whiteSpace=wrap;html=1;fillColor=#dae8fc;strokeColor=#6c8ebf;" vertex="1" parent="1">
          <mxGeometry x="305" y="420" width="120" height="60" as="geometry" />
        </mxCell>
        <mxCell id="zVPU9EZqsMoLUNTVkmHJ-19" style="edgeStyle=orthogonalEdgeStyle;rounded=0;orthogonalLoop=1;jettySize=auto;html=1;exitX=0.5;exitY=1;exitDx=0;exitDy=0;entryX=0.5;entryY=0;entryDx=0;entryDy=0;" edge="1" parent="1" source="zVPU9EZqsMoLUNTVkmHJ-4" target="zVPU9EZqsMoLUNTVkmHJ-3">
          <mxGeometry relative="1" as="geometry" />
        </mxCell>
        <mxCell id="zVPU9EZqsMoLUNTVkmHJ-21" value="Talks over HTTP" style="edgeLabel;html=1;align=center;verticalAlign=middle;resizable=0;points=[];" vertex="1" connectable="0" parent="zVPU9EZqsMoLUNTVkmHJ-19">
          <mxGeometry x="-0.4786" y="-3" relative="1" as="geometry">
            <mxPoint as="offset" />
          </mxGeometry>
        </mxCell>
        <mxCell id="zVPU9EZqsMoLUNTVkmHJ-4" value="web browser&lt;div&gt;(client)&lt;/div&gt;" style="rounded=1;whiteSpace=wrap;html=1;" vertex="1" parent="1">
          <mxGeometry x="305" y="300" width="120" height="60" as="geometry" />
        </mxCell>
        <mxCell id="zVPU9EZqsMoLUNTVkmHJ-9" value="" style="edgeStyle=orthogonalEdgeStyle;rounded=0;orthogonalLoop=1;jettySize=auto;html=1;" edge="1" parent="1" target="zVPU9EZqsMoLUNTVkmHJ-4">
          <mxGeometry relative="1" as="geometry">
            <mxPoint x="365" y="190" as="sourcePoint" />
          </mxGeometry>
        </mxCell>
        <mxCell id="zVPU9EZqsMoLUNTVkmHJ-20" value="operates" style="edgeLabel;html=1;align=center;verticalAlign=middle;resizable=0;points=[];" vertex="1" connectable="0" parent="zVPU9EZqsMoLUNTVkmHJ-9">
          <mxGeometry x="-0.0703" y="1" relative="1" as="geometry">
            <mxPoint as="offset" />
          </mxGeometry>
        </mxCell>
        <mxCell id="zVPU9EZqsMoLUNTVkmHJ-22" value="Trello API" style="rounded=1;whiteSpace=wrap;html=1;fillColor=#d5e8d4;strokeColor=#82b366;" vertex="1" parent="1">
          <mxGeometry x="305" y="510" width="120" height="70" as="geometry" />
        </mxCell>
        <mxCell id="zVPU9EZqsMoLUNTVkmHJ-25" value="Actor" style="shape=umlActor;verticalLabelPosition=bottom;verticalAlign=top;html=1;outlineConnect=0;" vertex="1" parent="1">
          <mxGeometry x="350" y="80" width="30" height="60" as="geometry" />
        </mxCell>
      </root>
    </mxGraphModel>
  </diagram>
</mxfile>
